<mxfile host="app.diagrams.net" modified="2023-11-06T19:36:23.054Z" agent="Mozilla/5.0 (Windows NT 10.0; Win64; x64) AppleWebKit/537.36 (KHTML, like Gecko) Chrome/119.0.0.0 Safari/537.36 Edg/119.0.0.0" etag="WLu4yK8TL3z2bLsbv4HE" version="22.0.8" type="google">
  <diagram name="Page-1" id="6bzp4FImf1-T7T33EPfh">
    <mxGraphModel grid="1" page="1" gridSize="10" guides="1" tooltips="1" connect="1" arrows="1" fold="1" pageScale="1" pageWidth="850" pageHeight="1100" math="0" shadow="0">
      <root>
        <mxCell id="0" />
        <mxCell id="1" parent="0" />
        <mxCell id="s5-8I4USiAM1vYIVdel2-12" style="edgeStyle=orthogonalEdgeStyle;rounded=0;orthogonalLoop=1;jettySize=auto;html=1;exitX=1;exitY=0.25;exitDx=0;exitDy=0;entryX=0.5;entryY=1;entryDx=0;entryDy=0;endArrow=block;endFill=0;" edge="1" parent="1" source="ZiVzGmgBKkDlEqRMeW3g-3" target="s5-8I4USiAM1vYIVdel2-5">
          <mxGeometry relative="1" as="geometry" />
        </mxCell>
        <mxCell id="ZiVzGmgBKkDlEqRMeW3g-3" value="Sensor" style="swimlane;fontStyle=0;childLayout=stackLayout;horizontal=1;startSize=30;horizontalStack=0;resizeParent=1;resizeParentMax=0;resizeLast=0;collapsible=1;marginBottom=0;whiteSpace=wrap;html=1;" vertex="1" parent="1">
          <mxGeometry x="-80" y="643" width="160" height="90" as="geometry" />
        </mxCell>
        <mxCell id="ZiVzGmgBKkDlEqRMeW3g-6" value="sensorID : UID" style="text;strokeColor=none;fillColor=none;align=left;verticalAlign=middle;spacingLeft=4;spacingRight=4;overflow=hidden;points=[[0,0.5],[1,0.5]];portConstraint=eastwest;rotatable=0;whiteSpace=wrap;html=1;" vertex="1" parent="ZiVzGmgBKkDlEqRMeW3g-3">
          <mxGeometry y="30" width="160" height="30" as="geometry" />
        </mxCell>
        <mxCell id="ZiVzGmgBKkDlEqRMeW3g-4" value="isDeployed: Bool" style="text;strokeColor=none;fillColor=none;align=left;verticalAlign=middle;spacingLeft=4;spacingRight=4;overflow=hidden;points=[[0,0.5],[1,0.5]];portConstraint=eastwest;rotatable=0;whiteSpace=wrap;html=1;" vertex="1" parent="ZiVzGmgBKkDlEqRMeW3g-3">
          <mxGeometry y="60" width="160" height="30" as="geometry" />
        </mxCell>
        <mxCell id="s5-8I4USiAM1vYIVdel2-2" style="edgeStyle=orthogonalEdgeStyle;rounded=0;orthogonalLoop=1;jettySize=auto;html=1;endArrow=block;endFill=0;entryX=0.5;entryY=0;entryDx=0;entryDy=0;" edge="1" parent="1" source="ZiVzGmgBKkDlEqRMeW3g-7" target="s5-8I4USiAM1vYIVdel2-8">
          <mxGeometry relative="1" as="geometry">
            <mxPoint x="-505" y="430" as="targetPoint" />
          </mxGeometry>
        </mxCell>
        <mxCell id="ZiVzGmgBKkDlEqRMeW3g-7" value="MapRegistry" style="swimlane;fontStyle=0;childLayout=stackLayout;horizontal=1;startSize=30;horizontalStack=0;resizeParent=1;resizeParentMax=0;resizeLast=0;collapsible=1;marginBottom=0;whiteSpace=wrap;html=1;" vertex="1" parent="1">
          <mxGeometry x="-410" y="260" width="130" height="60" as="geometry" />
        </mxCell>
        <mxCell id="ZiVzGmgBKkDlEqRMeW3g-11" value="Location" style="swimlane;fontStyle=0;childLayout=stackLayout;horizontal=1;startSize=30;horizontalStack=0;resizeParent=1;resizeParentMax=0;resizeLast=0;collapsible=1;marginBottom=0;whiteSpace=wrap;html=1;" vertex="1" parent="1">
          <mxGeometry x="-80" y="260" width="160" height="90" as="geometry" />
        </mxCell>
        <mxCell id="ZiVzGmgBKkDlEqRMeW3g-12" value="locationID: UID" style="text;strokeColor=none;fillColor=none;align=left;verticalAlign=middle;spacingLeft=4;spacingRight=4;overflow=hidden;points=[[0,0.5],[1,0.5]];portConstraint=eastwest;rotatable=0;whiteSpace=wrap;html=1;" vertex="1" parent="ZiVzGmgBKkDlEqRMeW3g-11">
          <mxGeometry y="30" width="160" height="30" as="geometry" />
        </mxCell>
        <mxCell id="_LJrNBDEAn9LA8Ad0spl-1" value="locationName: String" style="text;strokeColor=none;fillColor=none;align=left;verticalAlign=middle;spacingLeft=4;spacingRight=4;overflow=hidden;points=[[0,0.5],[1,0.5]];portConstraint=eastwest;rotatable=0;whiteSpace=wrap;html=1;" vertex="1" parent="ZiVzGmgBKkDlEqRMeW3g-11">
          <mxGeometry y="60" width="160" height="30" as="geometry" />
        </mxCell>
        <mxCell id="ZiVzGmgBKkDlEqRMeW3g-31" value="SensorTemperaturePair" style="swimlane;fontStyle=0;childLayout=stackLayout;horizontal=1;startSize=30;horizontalStack=0;resizeParent=1;resizeParentMax=0;resizeLast=0;collapsible=1;marginBottom=0;whiteSpace=wrap;html=1;" vertex="1" parent="1">
          <mxGeometry x="220" y="520" width="160" height="60" as="geometry" />
        </mxCell>
        <mxCell id="ZiVzGmgBKkDlEqRMeW3g-35" value="" style="edgeStyle=orthogonalEdgeStyle;rounded=0;orthogonalLoop=1;jettySize=auto;html=1;endArrow=diamondThin;endFill=1;strokeWidth=1;endSize=9;entryX=1;entryY=0.75;entryDx=0;entryDy=0;" edge="1" parent="1" target="ZiVzGmgBKkDlEqRMeW3g-23">
          <mxGeometry x="-0.905" y="-8" relative="1" as="geometry">
            <mxPoint x="-80" y="688" as="sourcePoint" />
            <mxPoint as="offset" />
            <mxPoint x="-280" y="688" as="targetPoint" />
          </mxGeometry>
        </mxCell>
        <mxCell id="ZiVzGmgBKkDlEqRMeW3g-94" value="1" style="edgeLabel;html=1;align=center;verticalAlign=middle;resizable=0;points=[];" vertex="1" connectable="0" parent="ZiVzGmgBKkDlEqRMeW3g-35">
          <mxGeometry x="0.6941" y="1" relative="1" as="geometry">
            <mxPoint x="-17" y="-13" as="offset" />
          </mxGeometry>
        </mxCell>
        <mxCell id="1zSwMlnyt9hES_HzQYHG-25" value="registered-in" style="edgeLabel;html=1;align=center;verticalAlign=middle;resizable=0;points=[];" connectable="0" vertex="1" parent="ZiVzGmgBKkDlEqRMeW3g-35">
          <mxGeometry x="0.1011" y="1" relative="1" as="geometry">
            <mxPoint x="36" y="-9" as="offset" />
          </mxGeometry>
        </mxCell>
        <mxCell id="vea9II_apTmhG3X5aViX-20" value="*" style="edgeLabel;html=1;align=center;verticalAlign=middle;resizable=0;points=[];fontSize=16;" connectable="0" vertex="1" parent="ZiVzGmgBKkDlEqRMeW3g-35">
          <mxGeometry x="-0.8631" y="-1" relative="1" as="geometry">
            <mxPoint x="3" y="-11" as="offset" />
          </mxGeometry>
        </mxCell>
        <mxCell id="ZiVzGmgBKkDlEqRMeW3g-27" value="SensorLocationPair" style="swimlane;fontStyle=0;childLayout=stackLayout;horizontal=1;startSize=30;horizontalStack=0;resizeParent=1;resizeParentMax=0;resizeLast=0;collapsible=1;marginBottom=0;whiteSpace=wrap;html=1;" vertex="1" parent="1">
          <mxGeometry x="-230" y="430" width="160" height="60" as="geometry" />
        </mxCell>
        <mxCell id="1zSwMlnyt9hES_HzQYHG-20" style="edgeStyle=orthogonalEdgeStyle;rounded=0;orthogonalLoop=1;jettySize=auto;html=1;entryX=0.5;entryY=1;entryDx=0;entryDy=0;exitX=0.5;exitY=0;exitDx=0;exitDy=0;endArrow=none;endFill=0;" edge="1" parent="1" source="ZiVzGmgBKkDlEqRMeW3g-3" target="ZiVzGmgBKkDlEqRMeW3g-11">
          <mxGeometry relative="1" as="geometry">
            <mxPoint x="50" y="550" as="sourcePoint" />
          </mxGeometry>
        </mxCell>
        <mxCell id="1zSwMlnyt9hES_HzQYHG-21" value="0,1" style="edgeLabel;html=1;align=center;verticalAlign=middle;resizable=0;points=[];" connectable="0" vertex="1" parent="1zSwMlnyt9hES_HzQYHG-20">
          <mxGeometry x="0.6592" y="-1" relative="1" as="geometry">
            <mxPoint x="9" y="-39" as="offset" />
          </mxGeometry>
        </mxCell>
        <mxCell id="1zSwMlnyt9hES_HzQYHG-22" value="1" style="edgeLabel;html=1;align=center;verticalAlign=middle;resizable=0;points=[];" connectable="0" vertex="1" parent="1zSwMlnyt9hES_HzQYHG-20">
          <mxGeometry x="-0.7136" y="-1" relative="1" as="geometry">
            <mxPoint x="5" y="32" as="offset" />
          </mxGeometry>
        </mxCell>
        <mxCell id="1zSwMlnyt9hES_HzQYHG-23" value="mapped-to" style="edgeLabel;html=1;align=center;verticalAlign=middle;resizable=0;points=[];" connectable="0" vertex="1" parent="1zSwMlnyt9hES_HzQYHG-20">
          <mxGeometry x="-0.0627" relative="1" as="geometry">
            <mxPoint x="-50" y="94" as="offset" />
          </mxGeometry>
        </mxCell>
        <mxCell id="ZiVzGmgBKkDlEqRMeW3g-15" value="Temperature" style="swimlane;fontStyle=0;childLayout=stackLayout;horizontal=1;startSize=30;horizontalStack=0;resizeParent=1;resizeParentMax=0;resizeLast=0;collapsible=1;marginBottom=0;whiteSpace=wrap;html=1;" vertex="1" parent="1">
          <mxGeometry x="400" y="643" width="160" height="60" as="geometry" />
        </mxCell>
        <mxCell id="ZiVzGmgBKkDlEqRMeW3g-18" value="value: Float" style="text;strokeColor=none;fillColor=none;align=left;verticalAlign=middle;spacingLeft=4;spacingRight=4;overflow=hidden;points=[[0,0.5],[1,0.5]];portConstraint=eastwest;rotatable=0;whiteSpace=wrap;html=1;" vertex="1" parent="ZiVzGmgBKkDlEqRMeW3g-15">
          <mxGeometry y="30" width="160" height="30" as="geometry" />
        </mxCell>
        <mxCell id="s5-8I4USiAM1vYIVdel2-3" style="edgeStyle=orthogonalEdgeStyle;rounded=0;orthogonalLoop=1;jettySize=auto;html=1;endArrow=block;endFill=0;entryX=0.502;entryY=1.001;entryDx=0;entryDy=0;entryPerimeter=0;" edge="1" parent="1" source="ZiVzGmgBKkDlEqRMeW3g-23" target="s5-8I4USiAM1vYIVdel2-9">
          <mxGeometry relative="1" as="geometry">
            <mxPoint x="-509.70000000000005" y="505.15" as="targetPoint" />
            <Array as="points">
              <mxPoint x="-345" y="570" />
              <mxPoint x="-345" y="570" />
            </Array>
          </mxGeometry>
        </mxCell>
        <mxCell id="ZiVzGmgBKkDlEqRMeW3g-23" value="SensorRegistry" style="swimlane;fontStyle=0;childLayout=stackLayout;horizontal=1;startSize=30;horizontalStack=0;resizeParent=1;resizeParentMax=0;resizeLast=0;collapsible=1;marginBottom=0;whiteSpace=wrap;html=1;" vertex="1" parent="1">
          <mxGeometry x="-410" y="643" width="120" height="60" as="geometry" />
        </mxCell>
        <mxCell id="ZiVzGmgBKkDlEqRMeW3g-79" style="rounded=0;orthogonalLoop=1;jettySize=auto;html=1;endArrow=none;endFill=0;strokeWidth=1;entryX=0;entryY=0.5;entryDx=0;entryDy=0;" edge="1" parent="1" target="ZiVzGmgBKkDlEqRMeW3g-18">
          <mxGeometry relative="1" as="geometry">
            <mxPoint x="330" y="690" as="targetPoint" />
            <mxPoint x="80" y="688" as="sourcePoint" />
          </mxGeometry>
        </mxCell>
        <mxCell id="ZiVzGmgBKkDlEqRMeW3g-81" value="1" style="edgeLabel;html=1;align=center;verticalAlign=middle;resizable=0;points=[];" connectable="0" vertex="1" parent="ZiVzGmgBKkDlEqRMeW3g-79">
          <mxGeometry x="-0.7789" relative="1" as="geometry">
            <mxPoint x="-26" y="12" as="offset" />
          </mxGeometry>
        </mxCell>
        <mxCell id="ZiVzGmgBKkDlEqRMeW3g-82" value="1" style="edgeLabel;html=1;align=center;verticalAlign=middle;resizable=0;points=[];" vertex="1" connectable="0" parent="ZiVzGmgBKkDlEqRMeW3g-79">
          <mxGeometry x="0.7433" y="2" relative="1" as="geometry">
            <mxPoint x="22" y="-8" as="offset" />
          </mxGeometry>
        </mxCell>
        <mxCell id="ZiVzGmgBKkDlEqRMeW3g-88" value="&amp;nbsp;reads&amp;nbsp;" style="edgeLabel;html=1;align=center;verticalAlign=middle;resizable=0;points=[];fontSize=12;" connectable="0" vertex="1" parent="ZiVzGmgBKkDlEqRMeW3g-79">
          <mxGeometry x="-0.0484" y="-1" relative="1" as="geometry">
            <mxPoint x="-79" y="29" as="offset" />
          </mxGeometry>
        </mxCell>
        <mxCell id="ZiVzGmgBKkDlEqRMeW3g-104" value="" style="endArrow=none;dashed=1;html=1;rounded=0;" edge="1" parent="1">
          <mxGeometry width="50" height="50" relative="1" as="geometry">
            <mxPoint y="475" as="sourcePoint" />
            <mxPoint x="-70" y="475" as="targetPoint" />
          </mxGeometry>
        </mxCell>
        <mxCell id="ZiVzGmgBKkDlEqRMeW3g-106" value="" style="endArrow=none;dashed=1;html=1;rounded=0;entryX=0.5;entryY=1;entryDx=0;entryDy=0;" edge="1" parent="1" target="ZiVzGmgBKkDlEqRMeW3g-31">
          <mxGeometry width="50" height="50" relative="1" as="geometry">
            <mxPoint x="300" y="690" as="sourcePoint" />
            <mxPoint x="380" y="490" as="targetPoint" />
          </mxGeometry>
        </mxCell>
        <mxCell id="vea9II_apTmhG3X5aViX-13" style="edgeStyle=orthogonalEdgeStyle;rounded=0;orthogonalLoop=1;jettySize=auto;html=1;endArrow=diamondThin;endFill=1;endSize=9;entryX=1;entryY=0.75;entryDx=0;entryDy=0;" edge="1" parent="1" source="ZiVzGmgBKkDlEqRMeW3g-12" target="ZiVzGmgBKkDlEqRMeW3g-7">
          <mxGeometry relative="1" as="geometry">
            <mxPoint x="-280" y="305" as="targetPoint" />
          </mxGeometry>
        </mxCell>
        <mxCell id="vea9II_apTmhG3X5aViX-14" value="&lt;font style=&quot;font-size: 16px;&quot;&gt;*&lt;/font&gt;" style="edgeLabel;html=1;align=center;verticalAlign=middle;resizable=0;points=[];" vertex="1" connectable="0" parent="vea9II_apTmhG3X5aViX-13">
          <mxGeometry x="-0.8172" y="-2" relative="1" as="geometry">
            <mxPoint x="8" y="-10" as="offset" />
          </mxGeometry>
        </mxCell>
        <mxCell id="vea9II_apTmhG3X5aViX-15" value="1" style="edgeLabel;html=1;align=center;verticalAlign=middle;resizable=0;points=[];" vertex="1" connectable="0" parent="vea9II_apTmhG3X5aViX-13">
          <mxGeometry x="0.7856" relative="1" as="geometry">
            <mxPoint x="-8" y="-13" as="offset" />
          </mxGeometry>
        </mxCell>
        <mxCell id="vea9II_apTmhG3X5aViX-16" value="registered-in" style="edgeLabel;html=1;align=center;verticalAlign=middle;resizable=0;points=[];" vertex="1" connectable="0" parent="vea9II_apTmhG3X5aViX-13">
          <mxGeometry x="-0.0489" y="-1" relative="1" as="geometry">
            <mxPoint x="15" y="-8" as="offset" />
          </mxGeometry>
        </mxCell>
        <mxCell id="rWerrkUP10xMUcdo7clt-2" value="" style="shape=mxgraph.arrows2.wedgeArrow;html=1;bendable=0;startWidth=5.254237288135592;fillColor=strokeColor;defaultFillColor=invert;defaultGradientColor=invert;rounded=0;" edge="1" parent="1">
          <mxGeometry width="100" height="100" relative="1" as="geometry">
            <mxPoint x="110" y="703" as="sourcePoint" />
            <mxPoint x="130" y="703" as="targetPoint" />
          </mxGeometry>
        </mxCell>
        <mxCell id="rWerrkUP10xMUcdo7clt-3" value="" style="shape=mxgraph.arrows2.wedgeArrow;html=1;bendable=0;startWidth=5.254237288135592;fillColor=strokeColor;defaultFillColor=invert;defaultGradientColor=invert;rounded=0;" edge="1" parent="1">
          <mxGeometry width="100" height="100" relative="1" as="geometry">
            <mxPoint x="-14" y="610" as="sourcePoint" />
            <mxPoint x="-14" y="590" as="targetPoint" />
          </mxGeometry>
        </mxCell>
        <mxCell id="s5-8I4USiAM1vYIVdel2-5" value="&lt;i&gt;HasUUID&lt;/i&gt;" style="swimlane;fontStyle=0;childLayout=stackLayout;horizontal=1;startSize=30;horizontalStack=0;resizeParent=1;resizeParentMax=0;resizeLast=0;collapsible=1;marginBottom=0;whiteSpace=wrap;html=1;" vertex="1" parent="1">
          <mxGeometry x="40" y="440" width="160" height="60" as="geometry" />
        </mxCell>
        <mxCell id="s5-8I4USiAM1vYIVdel2-8" value="&lt;i&gt;Registry&amp;lt;T extends HasUUID&amp;gt;&lt;/i&gt;" style="swimlane;fontStyle=0;childLayout=stackLayout;horizontal=1;startSize=30;horizontalStack=0;resizeParent=1;resizeParentMax=0;resizeLast=0;collapsible=1;marginBottom=0;whiteSpace=wrap;html=1;" vertex="1" parent="1">
          <mxGeometry x="-432.5" y="430" width="175" height="60" as="geometry" />
        </mxCell>
        <mxCell id="s5-8I4USiAM1vYIVdel2-9" value="registryItems: Map&amp;lt;UUID, T&amp;gt;" style="text;strokeColor=none;fillColor=none;align=left;verticalAlign=middle;spacingLeft=4;spacingRight=4;overflow=hidden;points=[[0,0.5],[1,0.5]];portConstraint=eastwest;rotatable=0;whiteSpace=wrap;html=1;" vertex="1" parent="s5-8I4USiAM1vYIVdel2-8">
          <mxGeometry y="30" width="175" height="30" as="geometry" />
        </mxCell>
        <mxCell id="s5-8I4USiAM1vYIVdel2-11" style="edgeStyle=orthogonalEdgeStyle;rounded=0;orthogonalLoop=1;jettySize=auto;html=1;entryX=0.5;entryY=0;entryDx=0;entryDy=0;endArrow=block;endFill=0;" edge="1" parent="1" source="_LJrNBDEAn9LA8Ad0spl-1" target="s5-8I4USiAM1vYIVdel2-5">
          <mxGeometry relative="1" as="geometry" />
        </mxCell>
        <mxCell id="s5-8I4USiAM1vYIVdel2-13" value="" style="endArrow=none;dashed=1;html=1;rounded=0;entryX=0.5;entryY=1;entryDx=0;entryDy=0;" edge="1" parent="1" target="ZiVzGmgBKkDlEqRMeW3g-31">
          <mxGeometry width="50" height="50" relative="1" as="geometry">
            <mxPoint x="300" y="690" as="sourcePoint" />
            <mxPoint x="300" y="580" as="targetPoint" />
          </mxGeometry>
        </mxCell>
      </root>
    </mxGraphModel>
  </diagram>
</mxfile>
